{
    "asset" : {
        "generator" : "Khronos glTF Blender I/O v1.7.33",
        "version" : "2.0"
    },
    "scene" : 0,
    "scenes" : [
        {
            "name" : "Scene",
            "nodes" : [
                0,
                1
            ]
        }
    ],
    "nodes" : [
        {
            "mesh" : 0,
            "name" : "houses_e",
            "translation" : [
                -184.190185546875,
                18.44720458984375,
                -1006.7581176757812
            ]
        },
        {
            "mesh" : 1,
            "name" : "houses_s",
            "translation" : [
                -179.27783203125,
                18.447189331054688,
                -948.1832885742188
            ]
        }
    ],
    "materials" : [
        {
            "doubleSided" : true,
            "name" : "houses_e_mat",
            "normalTexture" : {
                "index" : 0
            },
            "pbrMetallicRoughness" : {
                "baseColorTexture" : {
                    "index" : 1
                },
                "metallicRoughnessTexture" : {
                    "index" : 2
                }
            }
        },
        {
            "doubleSided" : true,
            "name" : "houses._s_mat",
            "normalTexture" : {
                "index" : 3
            },
            "pbrMetallicRoughness" : {
                "baseColorTexture" : {
                    "index" : 4
                },
                "metallicRoughnessTexture" : {
                    "index" : 5
                }
            }
        }
    ],
    "meshes" : [
        {
            "name" : "Mesh.017",
            "primitives" : [
                {
                    "attributes" : {
                        "POSITION" : 0,
                        "NORMAL" : 1,
                        "TEXCOORD_0" : 2
                    },
                    "indices" : 3,
                    "material" : 0
                }
            ]
        },
        {
            "name" : "Mesh.010",
            "primitives" : [
                {
                    "attributes" : {
                        "POSITION" : 4,
                        "NORMAL" : 5,
                        "TEXCOORD_0" : 6
                    },
                    "indices" : 7,
                    "material" : 1
                }
            ]
        }
    ],
    "textures" : [
        {
            "sampler" : 0,
            "source" : 0
        },
        {
            "sampler" : 0,
            "source" : 1
        },
        {
            "sampler" : 0,
            "source" : 2
        },
        {
            "sampler" : 0,
            "source" : 0
        },
        {
            "sampler" : 0,
            "source" : 3
        },
        {
            "sampler" : 0,
            "source" : 2
        }
    ],
    "images" : [
        {
            "mimeType" : "image/png",
            "name" : "houses_normal",
            "uri" : "tex/houses_normal.png"
        },
        {
            "mimeType" : "image/jpeg",
            "name" : "houses_e_albedo",
            "uri" : "tex/houses_e_albedo.jpg"
        },
        {
            "mimeType" : "image/png",
            "name" : "houses_metalness-houses_roughness",
            "uri" : "tex/houses_metalness-houses_roughness.png"
        },
        {
            "mimeType" : "image/jpeg",
            "name" : "houses_s_albedo",
            "uri" : "tex/houses_s_albedo.jpg"
        }
    ],
    "accessors" : [
        {
            "bufferView" : 0,
            "componentType" : 5126,
            "count" : 347,
            "max" : [
                7.850586414337158,
                7.419743061065674,
                27.30270767211914
            ],
            "min" : [
                -8.8264799118042,
                -7.148929119110107,
                -23.581893920898438
            ],
            "type" : "VEC3"
        },
        {
            "bufferView" : 1,
            "componentType" : 5126,
            "count" : 347,
            "type" : "VEC3"
        },
        {
            "bufferView" : 2,
            "componentType" : 5126,
            "count" : 347,
            "type" : "VEC2"
        },
        {
            "bufferView" : 3,
            "componentType" : 5123,
            "count" : 507,
            "type" : "SCALAR"
        },
        {
            "bufferView" : 4,
            "componentType" : 5126,
            "count" : 347,
            "max" : [
                27.30270767211914,
                7.419743061065674,
                8.8264799118042
            ],
            "min" : [
                -23.581893920898438,
                -7.148929119110107,
                -7.850587368011475
            ],
            "type" : "VEC3"
        },
        {
            "bufferView" : 5,
            "componentType" : 5126,
            "count" : 347,
            "type" : "VEC3"
        },
        {
            "bufferView" : 6,
            "componentType" : 5126,
            "count" : 347,
            "type" : "VEC2"
        },
        {
            "bufferView" : 7,
            "componentType" : 5123,
            "count" : 507,
            "type" : "SCALAR"
        }
    ],
    "bufferViews" : [
        {
            "buffer" : 0,
            "byteLength" : 4164,
            "byteOffset" : 0
        },
        {
            "buffer" : 0,
            "byteLength" : 4164,
            "byteOffset" : 4164
        },
        {
            "buffer" : 0,
            "byteLength" : 2776,
            "byteOffset" : 8328
        },
        {
            "buffer" : 0,
            "byteLength" : 1014,
            "byteOffset" : 11104
        },
        {
            "buffer" : 0,
            "byteLength" : 4164,
            "byteOffset" : 12120
        },
        {
            "buffer" : 0,
            "byteLength" : 4164,
            "byteOffset" : 16284
        },
        {
            "buffer" : 0,
            "byteLength" : 2776,
            "byteOffset" : 20448
        },
        {
            "buffer" : 0,
            "byteLength" : 1014,
            "byteOffset" : 23224
        }
    ],
    "samplers" : [
        {
            "magFilter" : 9729,
            "minFilter" : 9987
        }
    ],
    "buffers" : [
        {
            "byteLength" : 24240,
            "uri" : "houses.bin"
        }
    ]
}
