{"asset":{"version":"2.0","generator":"babylon.js glTF exporter for Autodesk Maya 2018 v20211112.3"},"scene":0,"scenes":[{"nodes":[0]}],"nodes":[{"mesh":0,"name":"modeldimian"}],"meshes":[{"primitives":[{"attributes":{"POSITION":1,"TANGENT":2,"NORMAL":3,"TEXCOORD_0":4},"indices":0,"material":0}],"name":"modeldimian"}],"accessors":[{"bufferView":0,"componentType":5123,"count":180,"type":"SCALAR","name":"accessorIndices"},{"bufferView":1,"componentType":5126,"count":61,"max":[90.24087,-37.16359,90.2408752],"min":[-90.2409058,-37.16359,-90.24093],"type":"VEC3","name":"accessorPositions"},{"bufferView":2,"componentType":5126,"count":61,"type":"VEC4","name":"accessorTangents"},{"bufferView":1,"byteOffset":732,"componentType":5126,"count":61,"type":"VEC3","name":"accessorNormals"},{"bufferView":3,"componentType":5126,"count":61,"type":"VEC2","name":"accessorUVs"}],"bufferViews":[{"buffer":0,"byteLength":360,"name":"bufferViewScalar"},{"buffer":0,"byteOffset":360,"byteLength":1464,"byteStride":12,"name":"bufferViewFloatVec3"},{"buffer":0,"byteOffset":1824,"byteLength":976,"byteStride":16,"name":"bufferViewFloatVec4"},{"buffer":0,"byteOffset":2800,"byteLength":488,"byteStride":8,"name":"bufferViewFloatVec2"}],"buffers":[{"uri":"yy.bin","byteLength":3288}],"materials":[{"pbrMetallicRoughness":{"baseColorFactor":[0.5,0.5,0.5,1.0],"metallicFactor":0.0,"roughnessFactor":0.201679826},"name":"blinn18"}]}